<?xml version="1.0" encoding="iso-8859-1"?>
<!-- Generator: Adobe Illustrator 19.0.0, SVG Export Plug-In . SVG Version: 6.00 Build 0)  -->
<svg version="1.1" id="Layer_1" xmlns="http://www.w3.org/2000/svg" xmlns:xlink="http://www.w3.org/1999/xlink" x="0px" y="0px"
	 viewBox="0 0 473.935 473.935" style="enable-background:new 0 0 473.935 473.935;" xml:space="preserve">
<circle style="fill:#FFCE00;" cx="236.967" cy="236.967" r="236.967"/>
<g>
	<path style="fill:#F37C2A;" d="M140.238,98.697l64.875,27.289l34.013-60.658l34.963,60.658l63.925-28.516l-7.207,69.897
		l70.237,14.155l-48.774,51.764l48.774,52.063l-68.703,13.848l6.9,71.431l-63.618-28.501l-35.263,60.651l-33.714-60.651
		l-66.409,28.501l8.157-68.362l-68.718-15.689l47.255-51.764l-47.255-52.056c-2.271,0,68.718-15.39,68.718-15.39L140.238,98.697z"/>
	<polygon style="fill:#EB6C25;" points="330.808,167.366 401.049,181.522 352.271,233.285 401.049,285.349 332.342,299.197 
		339.242,370.628 275.624,342.127 240.361,402.777 206.648,342.127 140.238,370.628 148.396,302.269 	"/>
</g>
<g>
	<path style="fill:#FFF5F4;" d="M198.603,261.121c-1.081,0-2.077-0.161-2.945-0.475c-0.891-0.322-1.732-0.834-2.5-1.512
		c-0.73-0.651-1.411-1.426-2.039-2.286c-0.584-0.827-1.175-1.665-1.762-2.522l-18.649-28.591v28.239
		c0,2.279-0.561,4.049-1.665,5.268c-1.126,1.25-2.593,1.878-4.348,1.878c-1.811,0-3.289-0.644-4.393-1.908
		c-1.074-1.235-1.624-2.99-1.624-5.238v-41.328c0-1.893,0.213-3.349,0.651-4.464c0.546-1.295,1.441-2.339,2.668-3.136
		c2.17-1.403,5.021-1.478,6.87-0.629c0.804,0.367,1.512,0.861,2.11,1.478c0.561,0.584,1.141,1.328,1.717,2.23
		c0.554,0.857,1.119,1.747,1.703,2.675l19.139,28.954v-28.744c0-2.294,0.528-4.071,1.564-5.276c1.066-1.242,2.522-1.878,4.303-1.878
		c1.833,0,3.311,0.629,4.4,1.878c1.044,1.197,1.579,2.975,1.579,5.276v42.125C205.383,259.74,201.701,261.121,198.603,261.121z"/>
	<path style="fill:#FFF5F4;" d="M252.466,260.208h-29.489c-2.608,0-4.554-0.621-5.759-1.848c-1.212-1.227-1.826-3.158-1.826-5.736
		v-40.269c0-1.717,0.254-3.091,0.782-4.217c0.561-1.19,1.448-2.069,2.638-2.608c1.104-0.505,2.507-0.752,4.165-0.752h28.647
		c1.964,0,3.472,0.468,4.486,1.388c1.036,0.95,1.564,2.2,1.564,3.704c0,1.534-0.528,2.799-1.564,3.742
		c-1.014,0.928-2.522,1.396-4.486,1.396h-23.51v11.285h21.575c1.893,0,3.349,0.46,4.34,1.358c1.014,0.928,1.527,2.148,1.527,3.633
		c0,1.478-0.505,2.713-1.489,3.656c-0.98,0.935-2.455,1.411-4.378,1.411h-21.575v13.366h24.352c1.946,0,3.45,0.483,4.486,1.433
		c1.066,0.973,1.601,2.271,1.601,3.85c0,1.542-0.535,2.806-1.601,3.779C255.912,259.725,254.408,260.208,252.466,260.208z"/>
	<path style="fill:#FFF5F4;" d="M311.878,261.121c-1.871,0-3.413-0.49-4.584-1.456c-1.119-0.935-1.908-2.002-2.354-3.188
		c-0.408-1.066-0.958-2.836-1.673-5.392l-7.768-28.801l-7.858,28.793c-0.703,2.5-1.242,4.239-1.658,5.328
		c-0.453,1.205-1.25,2.294-2.369,3.237c-1.171,0.98-2.713,1.478-4.591,1.478c-1.497,0-2.769-0.292-3.772-0.868
		c-1.003-0.584-1.826-1.411-2.44-2.455c-0.576-0.98-1.051-2.155-1.411-3.487c-0.344-1.257-0.651-2.432-0.921-3.51l-8.917-36.067
		c-0.554-2.178-0.834-3.82-0.834-5.014c0-1.643,0.591-3.046,1.747-4.172c1.156-1.126,2.586-1.695,4.269-1.695
		c2.339,0,3.955,0.804,4.808,2.398c0.73,1.351,1.343,3.237,1.878,5.766l6.181,27.558l6.877-25.601
		c0.599-2.301,1.126-4.011,1.602-5.22c0.528-1.317,1.381-2.47,2.552-3.413c1.212-0.988,2.851-1.489,4.861-1.489
		c2.054,0,3.689,0.528,4.876,1.572c1.126,0.98,1.916,2.084,2.361,3.282c0.4,1.074,0.928,2.799,1.601,5.268l6.941,25.624
		l6.181-27.596c0.344-1.624,0.674-2.945,0.995-3.925c0.352-1.059,0.958-2.024,1.804-2.859c0.921-0.906,2.23-1.366,3.888-1.366
		s3.083,0.561,4.247,1.665c1.175,1.126,1.77,2.537,1.77,4.202c0,1.089-0.269,2.728-0.827,5.014l-8.917,36.067
		c-0.629,2.5-1.134,4.277-1.549,5.444c-0.453,1.272-1.227,2.406-2.301,3.36C315.44,260.619,313.861,261.121,311.878,261.121z"/>
</g>
<g>
</g>
<g>
</g>
<g>
</g>
<g>
</g>
<g>
</g>
<g>
</g>
<g>
</g>
<g>
</g>
<g>
</g>
<g>
</g>
<g>
</g>
<g>
</g>
<g>
</g>
<g>
</g>
<g>
</g>
</svg>
