<?xml version="1.0" encoding="iso-8859-1"?>
<!-- Generator: Adobe Illustrator 19.0.0, SVG Export Plug-In . SVG Version: 6.00 Build 0)  -->
<svg version="1.1" id="Capa_1" xmlns="http://www.w3.org/2000/svg" xmlns:xlink="http://www.w3.org/1999/xlink" x="0px" y="0px"
	 viewBox="0 0 511.534 511.534" style="enable-background:new 0 0 511.534 511.534;" xml:space="preserve">
<g>
	
		<rect x="331.003" y="177.86" transform="matrix(-0.9523 0.3051 -0.3051 -0.9523 775.4899 572.6)" style="fill:#8BA0AE;" width="24" height="338.073"/>
	
		<rect x="-2.31" y="332.328" transform="matrix(-0.3053 0.9523 -0.9523 -0.3053 548.9656 288.1634)" style="fill:#8BA0AE;" width="343.358" height="24.001"/>
	<polygon style="fill:#8BA0AE;" points="370.698,466.808 155.954,357.224 309.17,274.56 320.562,295.68 207.594,356.632 
		381.61,445.432 	"/>
	<polygon style="fill:#8BA0AE;" points="140.906,466.808 129.994,445.432 303.922,356.68 192.522,297.144 203.834,275.976 
		355.746,357.168 	"/>
</g>
<path style="fill:#E04F5F;" d="M255.802,203.536c-39.648,0-71.904-32.256-71.904-71.912c0-39.648,32.256-71.904,71.904-71.904
	s71.904,32.256,71.904,71.904C327.706,171.28,295.45,203.536,255.802,203.536z M255.802,83.712
	c-26.416,0-47.904,21.496-47.904,47.904c0,26.424,21.496,47.912,47.904,47.912s47.904-21.496,47.904-47.912
	C303.706,105.208,282.218,83.712,255.802,83.712z"/>
<circle style="fill:#006EDB;" cx="255.802" cy="131.624" r="20.64"/>
<path style="fill:#E04F5F;" d="M255.802,263.24c-72.568,0-131.616-59.048-131.616-131.616S183.234,0,255.802,0
	s131.616,59.048,131.616,131.616S328.37,263.24,255.802,263.24z M255.802,24c-59.344,0-107.616,48.272-107.616,107.616
	S196.458,239.24,255.802,239.24s107.616-48.272,107.616-107.616S315.146,24,255.802,24z"/>
<g>
</g>
<g>
</g>
<g>
</g>
<g>
</g>
<g>
</g>
<g>
</g>
<g>
</g>
<g>
</g>
<g>
</g>
<g>
</g>
<g>
</g>
<g>
</g>
<g>
</g>
<g>
</g>
<g>
</g>
</svg>
