<?xml version="1.0" encoding="iso-8859-1"?>
<!-- Generator: Adobe Illustrator 19.0.0, SVG Export Plug-In . SVG Version: 6.00 Build 0)  -->
<svg version="1.1" id="Layer_1" xmlns="http://www.w3.org/2000/svg" xmlns:xlink="http://www.w3.org/1999/xlink" x="0px" y="0px"
	 viewBox="0 0 512 512" style="enable-background:new 0 0 512 512;" xml:space="preserve">
<g>
	<g>
		<path d="M189.441,44.974c5.85-5.85,5.85-15.335,0-21.185c-5.849-5.849-15.335-5.85-21.185,0
			c-30.761,30.761-30.761,80.812,0,111.574c5.849,5.849,15.334,5.85,21.185,0c5.85-5.85,5.85-15.335,0-21.185
			C170.362,95.099,170.362,64.055,189.441,44.974z"/>
	</g>
</g>
<g>
	<g>
		<path d="M343.745,23.789c-5.848-5.849-15.334-5.85-21.185,0c-5.85,5.85-5.85,15.335,0,21.185c19.079,19.08,19.079,50.124,0,69.205
			c-5.851,5.85-5.851,15.335,0,21.185c5.849,5.849,15.335,5.85,21.185,0C374.506,104.603,374.506,54.551,343.745,23.789z"/>
	</g>
</g>
<g>
	<g>
		<path d="M134.886,25.574c5.85-5.85,5.85-15.335,0-21.185c-5.849-5.849-15.335-5.85-21.185,0
			c-43.324,43.322-43.328,113.442,0,156.769c5.849,5.847,15.335,5.848,21.185-0.002c5.85-5.85,5.85-15.335,0-21.185
			C103.271,108.357,103.27,57.191,134.886,25.574z"/>
	</g>
</g>
<g>
	<g>
		<path d="M398.3,4.387c-5.849-5.849-15.335-5.85-21.185,0s-5.85,15.335,0,21.185c31.615,31.615,31.617,82.781,0,114.398
			c-5.851,5.851-5.851,15.337,0,21.187c5.849,5.85,15.334,5.85,21.185,0C441.623,117.834,441.628,47.715,398.3,4.387z"/>
	</g>
</g>
<g>
	<g>
		<path d="M479.702,482.04h-53.585c-2.807-7.384-136.696-359.538-139.497-366.905c10.717-9.264,16.316-22.146,16.316-35.559
			c0-12.537-4.884-24.325-13.749-33.19c-8.864-8.865-20.651-13.748-33.189-13.748c-25.941,0-46.938,20.992-46.938,46.938
			c0,13.514,5.68,26.37,16.316,35.559c-2.419,6.362-137.075,360.538-139.497,366.905H32.298c-8.273,0-14.98,6.707-14.98,14.98
			c0,8.273,6.707,14.98,14.98,14.98c19.402,0,424.877,0,447.404,0c8.273,0,14.98-6.707,14.98-14.98
			C494.682,488.747,487.975,482.04,479.702,482.04z M337.524,333.324l-60.477-61.285l26.837-27.196L337.524,333.324z
			 M326.713,365.023L256,400.379l-70.713-35.356L256,293.366L326.713,365.023z M253.141,126.419c2.102,0.127,3.615,0.127,5.718,0
			l33.318,87.633L256,250.711l-36.177-36.659L253.141,126.419z M208.117,244.843l26.837,27.196l-60.477,61.285L208.117,244.843z
			 M155.375,383.562l67.129,33.564l-98.641,49.32L155.375,383.562z M159.669,482.04L256,433.875l96.331,48.165H159.669z
			 M289.497,417.127l67.128-33.564l31.513,82.885L289.497,417.127z"/>
	</g>
</g>
<g>
</g>
<g>
</g>
<g>
</g>
<g>
</g>
<g>
</g>
<g>
</g>
<g>
</g>
<g>
</g>
<g>
</g>
<g>
</g>
<g>
</g>
<g>
</g>
<g>
</g>
<g>
</g>
<g>
</g>
</svg>
