<?xml version="1.0" encoding="iso-8859-1"?>
<!-- Generator: Adobe Illustrator 19.0.0, SVG Export Plug-In . SVG Version: 6.00 Build 0)  -->
<svg version="1.1" id="Layer_1" xmlns="http://www.w3.org/2000/svg" xmlns:xlink="http://www.w3.org/1999/xlink" x="0px" y="0px"
	 viewBox="0 0 511.999 511.999" style="enable-background:new 0 0 511.999 511.999;" xml:space="preserve">
<path style="fill:#2EE6C7;" d="M178.697,140.023c-3.841,0-7.683-1.465-10.613-4.397c-30.821-30.821-30.821-80.97,0-111.792
	c5.861-5.862,15.365-5.862,21.226,0s5.862,15.365,0,21.226c-19.116,19.117-19.116,50.222,0,69.34c5.862,5.862,5.862,15.365,0,21.226
	C186.379,138.558,182.537,140.023,178.697,140.023z"/>
<path style="fill:#29CCB1;" d="M333.302,140.023c-3.841,0-7.683-1.465-10.613-4.396c-5.862-5.862-5.862-15.365,0-21.226
	c19.116-19.117,19.116-50.222,0-69.34c-5.862-5.862-5.862-15.365,0-21.226c5.862-5.861,15.365-5.861,21.226,0
	c30.821,30.821,30.821,80.97,0,111.792C340.985,138.559,337.144,140.023,333.302,140.023z"/>
<path style="fill:#2EE6C7;" d="M124.037,165.866c-3.841,0-7.683-1.465-10.613-4.396c-20.979-20.978-32.532-48.87-32.532-78.538
	s11.553-57.559,32.532-78.538c5.861-5.861,15.365-5.861,21.226,0c5.862,5.862,5.862,15.365,0,21.226
	c-15.308,15.308-23.74,35.661-23.74,57.31s8.431,42.003,23.74,57.31c5.862,5.862,5.862,15.365,0,21.226
	C131.718,164.402,127.877,165.866,124.037,165.866z"/>
<path style="fill:#29CCB1;" d="M387.963,165.866c-3.841,0-7.683-1.465-10.613-4.397c-5.862-5.862-5.862-15.365,0-21.226
	c15.308-15.308,23.74-35.661,23.74-57.31s-8.431-42.002-23.74-57.31c-5.862-5.862-5.862-15.365,0-21.226
	c5.861-5.862,15.365-5.862,21.226,0c20.979,20.978,32.532,48.87,32.532,78.538s-11.553,57.56-32.532,78.538
	C395.646,164.401,391.803,165.866,387.963,165.866z"/>
<path style="fill:#5C5F66;" d="M430.124,491.643L282.344,103.95c-2.953-7.746-11.626-11.633-19.371-8.678
	c-2.932,1.118-5.307,3.057-6.972,5.453c-1.664-2.396-4.04-4.336-6.972-5.453c-7.748-2.954-16.419,0.933-19.371,8.678L81.876,491.643
	c-2.203,5.781-0.634,12.322,3.952,16.473c2.822,2.555,6.429,3.882,10.075,3.882c2.281,0,4.58-0.52,6.709-1.585l153.387-76.693
	l153.387,76.693c2.129,1.065,4.427,1.585,6.709,1.585c3.647,0,7.253-1.329,10.075-3.882
	C430.759,503.966,432.328,497.425,430.124,491.643z M337.412,332.699l-60.325-61.131l26.708-27.064L337.412,332.699z
	 M326.85,364.734l-70.851,35.425l-70.851-35.425l70.851-71.796L326.85,364.734z M255.999,119.12l36.043,94.556L255.999,250.2
	l-36.043-36.524L255.999,119.12z M208.206,244.505l26.708,27.064L174.588,332.7L208.206,244.505z M123.648,466.335l31.629-82.975
	l67.162,33.581L123.648,466.335z M289.561,416.94l67.162-33.581l31.629,82.975L289.561,416.94z"/>
<path style="fill:#53565C;" d="M292.043,213.676L255.999,250.2v42.736l70.851,71.796l-70.851,35.425v33.562l153.387,76.693
	c2.129,1.065,4.427,1.585,6.709,1.585c3.647,0,7.253-1.329,10.075-3.882c4.587-4.152,6.156-10.693,3.952-16.473L282.344,103.95
	c-2.953-7.746-11.626-11.633-19.371-8.678c-2.932,1.118-5.307,3.057-6.972,5.453v18.396L292.043,213.676z M388.351,466.335
	l-98.79-49.395l67.162-33.581L388.351,466.335z M337.412,332.699l-60.325-61.131l26.708-27.064L337.412,332.699z"/>
<path style="fill:#87D92B;" d="M480.138,511.999H31.861c-8.289,0-15.009-6.72-15.009-15.009c0-8.289,6.72-15.009,15.009-15.009
	h448.278c8.289,0,15.009,6.72,15.009,15.009C495.147,505.279,488.428,511.999,480.138,511.999z"/>
<path style="fill:#7FCC29;" d="M480.138,481.98H255.999v30.019h224.139c8.289,0,15.009-6.72,15.009-15.009
	C495.147,488.7,488.428,481.98,480.138,481.98z"/>
<path style="fill:#4DB5FF;" d="M255.999,126.76c-12.563,0-24.372-4.892-33.254-13.775c-8.883-8.882-13.776-20.693-13.776-33.255
	s4.893-24.372,13.776-33.255c8.882-8.881,20.692-13.775,33.254-13.775s24.372,4.892,33.254,13.775l0,0
	c8.883,8.882,13.776,20.693,13.776,33.255s-4.893,24.372-13.776,33.255C280.372,121.868,268.562,126.76,255.999,126.76z"/>
<path style="fill:#4D97FF;" d="M289.254,112.987c8.883-8.882,13.776-20.693,13.776-33.255s-4.893-24.372-13.776-33.255l0,0
	c-8.882-8.882-20.692-13.775-33.254-13.775v94.058C268.562,126.76,280.372,121.868,289.254,112.987z"/>
<g>
</g>
<g>
</g>
<g>
</g>
<g>
</g>
<g>
</g>
<g>
</g>
<g>
</g>
<g>
</g>
<g>
</g>
<g>
</g>
<g>
</g>
<g>
</g>
<g>
</g>
<g>
</g>
<g>
</g>
</svg>
