<?xml version="1.0" encoding="iso-8859-1"?>
<!-- Generator: Adobe Illustrator 19.0.0, SVG Export Plug-In . SVG Version: 6.00 Build 0)  -->
<svg version="1.1" id="Layer_1" xmlns="http://www.w3.org/2000/svg" xmlns:xlink="http://www.w3.org/1999/xlink" x="0px" y="0px"
	 viewBox="0 0 511.965 511.965" style="enable-background:new 0 0 511.965 511.965;" xml:space="preserve">
<g>
	
		<rect x="332.12" y="145.425" transform="matrix(0.9536 -0.3011 0.3011 0.9536 -84.1235 117.813)" style="fill:#415E72;" width="16.036" height="372.776"/>
	
		<rect x="-14.586" y="323.792" transform="matrix(0.3009 -0.9537 0.9537 0.3009 -196.3341 395.7909)" style="fill:#415E72;" width="372.754" height="16.035"/>
	<polygon style="fill:#415E72;" points="376.073,463.933 173.41,326.199 306.556,232.143 315.813,245.235 201.582,325.95 
		385.097,450.665 	"/>
	<polygon style="fill:#415E72;" points="135.868,463.933 126.843,450.665 310.358,325.95 196.127,245.235 205.385,232.143 
		338.531,326.199 	"/>
</g>
<circle style="fill:#25B6D2;" cx="255.97" cy="125.076" r="44.449"/>
<circle style="fill:#415E72;" cx="255.97" cy="125.076" r="21.579"/>
<g>
	<path style="fill:#25B6D2;" d="M255.97,61.664c34.999,0,63.372,28.373,63.372,63.372s-28.373,63.372-63.372,63.372
		s-63.372-28.373-63.372-63.372l0,0C192.654,90.061,220.995,61.72,255.97,61.664 M255.97,53.642
		c-39.427,0-71.394,31.967-71.394,71.394s31.967,71.394,71.394,71.394s71.394-31.967,71.394-71.394S295.397,53.642,255.97,53.642
		L255.97,53.642z"/>
	<path style="fill:#25B6D2;" d="M255.97,34.815c49.848,0,90.261,40.414,90.261,90.261s-40.414,90.261-90.261,90.261
		s-90.261-40.414-90.261-90.261C165.757,75.245,206.139,34.871,255.97,34.815 M255.97,26.793c-54.284,0-98.283,44-98.283,98.283
		s44,98.283,98.283,98.283s98.283-44,98.283-98.283l0,0C354.253,70.792,310.246,26.793,255.97,26.793z"/>
	<path style="fill:#25B6D2;" d="M255.97,8.022c64.648,0,117.054,52.406,117.054,117.054S320.618,242.13,255.97,242.13
		s-117.054-52.406-117.054-117.054l0,0C138.988,60.46,191.355,8.094,255.97,8.022 M255.97,0c-69.076,0-125.076,56-125.076,125.076
		s56,125.076,125.076,125.076s125.076-56,125.076-125.076l0,0C381.046,56,325.046,0,255.97,0z"/>
</g>
<g>
</g>
<g>
</g>
<g>
</g>
<g>
</g>
<g>
</g>
<g>
</g>
<g>
</g>
<g>
</g>
<g>
</g>
<g>
</g>
<g>
</g>
<g>
</g>
<g>
</g>
<g>
</g>
<g>
</g>
</svg>
