<?xml version="1.0" encoding="iso-8859-1"?>
<!-- Generator: Adobe Illustrator 19.0.0, SVG Export Plug-In . SVG Version: 6.00 Build 0)  -->
<svg version="1.1" id="Layer_1" xmlns="http://www.w3.org/2000/svg" xmlns:xlink="http://www.w3.org/1999/xlink" x="0px" y="0px"
	 viewBox="0 0 512.001 512.001" style="enable-background:new 0 0 512.001 512.001;" xml:space="preserve">
<rect x="204.799" y="204.605" style="fill:#5A697C;" width="102.399" height="34.133"/>
<rect x="255.999" y="204.605" style="fill:#50667F;" width="51.2" height="34.133"/>
<path style="fill:#5A697C;" d="M362.61,437.844c-6.258,6.94-17.067,7.623-24.121,1.365l-82.488-73.386l-82.488,73.386
	c-7.054,6.258-17.863,5.689-24.121-1.365s-5.689-17.863,1.365-24.121l79.53-70.655l-45.397-40.391
	c-7.054-6.258-7.623-17.067-1.365-24.121c6.258-6.94,17.067-7.623,24.121-1.365l48.355,43.008l48.355-43.008
	c7.054-6.258,17.863-5.689,24.121,1.365s5.689,17.863-1.365,24.121l-45.397,40.391l79.53,70.655
	C368.299,419.981,368.867,430.79,362.61,437.844z"/>
<path style="fill:#50667F;" d="M362.61,437.844c-6.258,6.94-17.067,7.623-24.121,1.365l-82.488-73.386v-45.624l48.355-43.008
	c7.054-6.258,17.863-5.689,24.121,1.365c6.258,7.054,5.689,17.863-1.365,24.121l-45.397,40.391l79.53,70.655
	C368.299,419.981,368.867,430.79,362.61,437.844z"/>
<path style="fill:#51DAE6;" d="M480.833,167.825c-9.056-2.617-14.266-12.083-11.655-21.133c11.464-39.618,11.71-82.643,0-123.11
	c-2.611-9.05,2.6-18.516,11.655-21.133c9.033-2.638,18.511,2.588,21.144,11.655c13.353,46.233,13.377,95.75,0,142.065
	C499.348,165.235,489.86,170.445,480.833,167.825z"/>
<path style="fill:#5AF1FF;" d="M10.514,157.852c-14.017-47.284-14.02-98.128,0-145.432C13.204,3.382,22.781-1.769,31.725,0.91
	c9.044,2.678,14.199,12.172,11.522,21.211c-11.889,40.113-12.41,84.174,0,126.032c2.678,9.038-2.478,18.533-11.511,21.211
	C22.723,172.049,13.2,166.907,10.514,157.852z"/>
<path style="fill:#51DAE6;" d="M414.232,151.331c-9.011-2.756-14.078-12.3-11.322-21.316c8.918-29.062,8.926-60.669,0-89.755
	c-2.756-9.017,2.311-18.56,11.322-21.316c9.011-2.783,18.556,2.305,21.322,11.316c10.896,35.627,10.916,74.065,0,109.755
	C432.812,148.947,423.314,154.116,414.232,151.331z"/>
<path style="fill:#5AF1FF;" d="M76.991,141.736c-11.44-36.099-11.826-75.877,0-113.193c2.844-8.978,12.355-13.95,21.422-11.122
	c8.978,2.85,13.956,12.439,11.111,21.422c-9.487,30-9.513,62.52,0,92.582c2.844,8.988-2.122,18.577-11.111,21.428
	C89.358,155.704,79.82,150.678,76.991,141.736z"/>
<path style="fill:#51DAE6;" d="M347.223,134.708c-8.9-3.083-13.633-12.8-10.555-21.705c6.222-17.988,6.228-37.723,0-55.727
	c-3.078-8.905,1.655-18.622,10.555-21.705c8.922-3.083,18.622,1.644,21.711,10.561c8.706,25.214,8.724,52.749,0,78.016
	C365.89,132.948,356.3,137.806,347.223,134.708z"/>
<path style="fill:#5AF1FF;" d="M143.725,125.964c-9.585-26.317-9.596-55.303,0-81.655c3.222-8.861,13.012-13.422,21.878-10.189
	c8.855,3.222,13.422,13.022,10.189,21.878c-6.852,18.797-6.818,39.564,0,58.288c3.234,8.855-1.333,18.65-10.189,21.878
	C156.652,139.404,146.925,134.756,143.725,125.964z"/>
<path d="M256.001,117.075c0.228-1.7,0.27-3.388,0-5.016C255.731,113.688,255.774,115.375,256.001,117.075z"/>
<path style="fill:#50667F;" d="M330.967,420.778h35.163l-45.052-182.043l-8.447-34.133l-23.23-93.866
	c-2.255-9.144-11.499-14.706-20.666-12.467c-6.82,1.691-11.652,7.268-12.733,13.79c0.27,1.628,0.113,6.254,0.266,6.877l21.2,85.666
	l8.447,34.133L330.967,420.778z"/>
<path style="fill:#5A697C;" d="M181.036,420.778l45.052-182.043l8.447-34.133l21.2-85.666c0.154-0.622-0.002-5.25,0.266-6.877
	c-3.017-18.201-28.965-19.203-33.399-1.323l-23.23,93.866l-8.447,34.133l-45.052,182.043H181.036z"/>
<path style="fill:#7B90A9;" d="M426.666,511.799H85.336c-12.769,0-20.972-13.52-15.199-24.827l25.355-49.656
	c8.799-17.222,26.267-27.916,45.599-27.916h230.342c19.522,0,37.078,10.844,45.8,28.305l24.7,49.394
	C447.592,498.418,439.352,511.799,426.666,511.799z"/>
<path style="fill:#72859C;" d="M417.233,437.706c-8.722-17.461-26.278-28.305-45.8-28.305H256.001v102.399h170.665
	c12.686,0,20.926-13.381,15.267-24.7L417.233,437.706z"/>
<path style="fill:#7B90A9;" d="M256.001,136.336c-28.233,0-51.2-22.967-51.2-51.2s22.967-51.2,51.2-51.2s51.2,22.967,51.2,51.2
	S284.235,136.336,256.001,136.336z"/>
<path style="fill:#72859C;" d="M307.2,85.136c0-28.233-22.967-51.2-51.2-51.2v102.399C284.235,136.336,307.2,113.37,307.2,85.136z"
	/>
<g>
</g>
<g>
</g>
<g>
</g>
<g>
</g>
<g>
</g>
<g>
</g>
<g>
</g>
<g>
</g>
<g>
</g>
<g>
</g>
<g>
</g>
<g>
</g>
<g>
</g>
<g>
</g>
<g>
</g>
</svg>
