<?xml version="1.0" encoding="iso-8859-1"?>
<!-- Generator: Adobe Illustrator 19.0.0, SVG Export Plug-In . SVG Version: 6.00 Build 0)  -->
<svg version="1.1" id="Layer_1" xmlns="http://www.w3.org/2000/svg" xmlns:xlink="http://www.w3.org/1999/xlink" x="0px" y="0px"
	 viewBox="0 0 392.667 392.667" style="enable-background:new 0 0 392.667 392.667;" xml:space="preserve">
<g>
	<path style="fill:#194F82;" d="M96.62,218.15c-55.014-55.014-55.014-144.485,0-199.499c4.267-4.267,4.267-11.119,0-15.451
		c-4.267-4.267-11.119-4.267-15.451,0c-61.931,61.931-64.97,165.172,0,230.335c4.267,4.267,11.119,4.267,15.451,0
		C100.887,229.333,100.887,222.481,96.62,218.15z"/>
	<path style="fill:#194F82;" d="M118.988,195.717c4.267,4.267,11.119,4.267,15.45,0c4.267-4.267,4.267-11.119,0-15.451
		c-34.133-34.069-34.133-89.665,0-123.733c4.267-4.267,4.267-11.119,0-15.451c-4.267-4.267-11.119-4.267-15.45,0
		C76.515,83.103,76.515,153.568,118.988,195.717z"/>
	<path style="fill:#194F82;" d="M311.57,3.265c-4.267-4.267-11.119-4.267-15.451,0c-4.267,4.267-4.267,11.119,0,15.451
		c55.014,55.014,55.014,144.485,0,199.499c-4.267,4.267-4.267,11.119,0,15.451c4.267,4.267,11.119,4.267,15.451,0
		C376.475,168.566,373.372,65.325,311.57,3.265z"/>
	<path style="fill:#194F82;" d="M258.236,180.267c-4.267,4.267-4.267,11.119,0,15.451c4.267,4.267,11.119,4.267,15.451,0
		c42.473-42.214,42.473-112.679,0-154.634c-4.267-4.267-11.119-4.267-15.451,0c-4.267,4.267-4.267,11.119,0,15.451
		C292.434,90.731,292.434,146.198,258.236,180.267z"/>
	<path style="fill:#194F82;" d="M222.616,167.596c17.519-9.438,29.414-27.927,29.414-49.131c0-30.772-25.018-55.79-55.79-55.79
		s-55.79,25.018-55.79,55.79c0,21.269,11.96,39.693,29.543,49.131L90.996,377.891c-2.069,5.624,0.711,11.895,6.335,14.093
		c5.624,2.069,11.895-0.711,14.093-6.335l23.855-63.547l139.96,47.192l6.077,16.291c2.069,5.624,8.404,8.469,14.093,6.335
		c5.624-2.069,8.469-8.404,6.335-14.093L222.616,167.596z M196.37,84.461c18.683,0,33.939,15.192,33.939,33.939
		s-15.192,33.939-33.939,33.939S162.43,137.147,162.43,118.4S177.622,84.461,196.37,84.461z M196.37,174.19
		c1.745,0,3.62-0.065,5.301-0.323l23.467,62.448l-46.675-29.349l12.412-32.97C192.749,174.125,194.495,174.19,196.37,174.19z
		 M170.705,227.911l47.192,29.673l-69.883,30.448L170.705,227.911z M158.939,307.103l79.644-34.78l26.57,70.659L158.939,307.103z"/>
</g>
<path style="fill:#56ACE0;" d="M196.37,152.404c18.683,0,33.939-15.192,33.939-33.939s-15.257-33.939-33.939-33.939
	s-33.939,15.192-33.939,33.939S177.622,152.404,196.37,152.404z"/>
<g>
</g>
<g>
</g>
<g>
</g>
<g>
</g>
<g>
</g>
<g>
</g>
<g>
</g>
<g>
</g>
<g>
</g>
<g>
</g>
<g>
</g>
<g>
</g>
<g>
</g>
<g>
</g>
<g>
</g>
</svg>
