<?xml version="1.0" encoding="iso-8859-1"?>
<!-- Generator: Adobe Illustrator 19.0.0, SVG Export Plug-In . SVG Version: 6.00 Build 0)  -->
<svg version="1.1" id="Layer_1" xmlns="http://www.w3.org/2000/svg" xmlns:xlink="http://www.w3.org/1999/xlink" x="0px" y="0px"
	 viewBox="0 0 512 512" style="enable-background:new 0 0 512 512;" xml:space="preserve">
<rect x="248.163" y="23.253" style="fill:#EA3939;" width="15.673" height="37.086"/>
<g>
	<path style="fill:#F16A5D;" d="M394.234,33.224c-29.397,0-54.246,19.44-62.413,46.163c39.4,14.722,73.37,40.577,98.067,73.748
		c17.822-11.651,29.607-31.769,29.607-54.65C459.495,62.442,430.276,33.224,394.234,33.224z"/>
	<path style="fill:#F16A5D;" d="M117.766,33.224c-36.043,0-65.261,29.218-65.261,65.261c0,22.881,11.785,42.999,29.606,54.65
		c24.699-33.171,58.668-59.026,98.068-73.748C172.012,52.663,147.163,33.224,117.766,33.224z"/>
</g>
<g style="opacity:0.1;">
	<path d="M430.886,44.485c-10.449-7.105-23.063-11.262-36.652-11.262c-29.397,0-54.246,19.44-62.413,46.163
		c8.491,3.173,16.729,6.866,24.677,11.035C370.403,63.371,398.451,44.797,430.886,44.485z"/>
</g>
<path style="opacity:0.1;enable-background:new    ;" d="M86.147,98.484c0-30.224,20.551-55.639,48.438-63.061
	c-5.368-1.428-11.003-2.201-16.82-2.201c-36.043,0-65.261,29.218-65.261,65.261c0,22.881,11.785,42.999,29.606,54.65
	c4.725-6.346,9.792-12.421,15.169-18.204C90.253,124.525,86.147,111.986,86.147,98.484z"/>
<path style="fill:#FFFFFF;" d="M256,479.798c-108.845,0-197.397-88.551-197.397-197.397S147.155,85.005,256,85.005
	s197.397,88.552,197.397,197.397C453.397,391.246,364.845,479.798,256,479.798z"/>
<path style="opacity:0.1;enable-background:new    ;" d="M98.628,282.401c0-99.626,76.702-181.659,174.151-190.184
	c-5.532-0.484-11.123-0.746-16.779-0.746c-105.28,0-190.93,85.65-190.93,190.93c0,105.279,85.65,190.93,190.93,190.93
	c5.655,0,11.247-0.262,16.779-0.746C175.33,464.059,98.628,382.025,98.628,282.401z"/>
<g>
	<path style="fill:#517D87;" d="M255.516,83.635c-4.329,0-7.837,3.509-7.837,7.837v15.468c0,4.328,3.508,7.837,7.837,7.837
		c4.329,0,7.837-3.509,7.837-7.837V91.471C263.353,87.142,259.845,83.635,255.516,83.635z"/>
	<path style="fill:#517D87;" d="M255.516,450.027c-4.329,0-7.837,3.509-7.837,7.837v15.468c0,4.328,3.508,7.837,7.837,7.837
		c4.329,0,7.837-3.509,7.837-7.837v-15.468C263.353,453.535,259.845,450.027,255.516,450.027z"/>
	<path style="fill:#517D87;" d="M80.055,274.565H64.586c-4.329,0-7.837,3.509-7.837,7.837s3.508,7.837,7.837,7.837h15.47
		c4.329,0,7.837-3.509,7.837-7.837C87.892,278.073,84.384,274.565,80.055,274.565z"/>
	<path style="fill:#517D87;" d="M446.446,274.565h-15.469c-4.329,0-7.837,3.509-7.837,7.837s3.508,7.837,7.837,7.837h15.469
		c4.329,0,7.837-3.509,7.837-7.837S450.774,274.565,446.446,274.565z"/>
	<path style="fill:#517D87;" d="M125.904,400.929l-10.938,10.938c-3.061,3.06-3.061,8.023,0.001,11.083
		c1.53,1.531,3.536,2.296,5.541,2.296s4.011-0.765,5.542-2.296l10.938-10.938c3.061-3.06,3.061-8.023-0.001-11.083
		C133.928,397.869,128.965,397.869,125.904,400.929z"/>
	<path style="fill:#517D87;" d="M384.984,141.851l-10.938,10.937c-3.062,3.061-3.062,8.023-0.001,11.083
		c1.531,1.53,3.536,2.296,5.542,2.296c2.005,0,4.011-0.765,5.541-2.295l10.938-10.937c3.062-3.061,3.062-8.023,0.001-11.083
		C393.007,138.793,388.045,138.792,384.984,141.851z"/>
	<path style="fill:#517D87;" d="M385.128,400.928c-3.059-3.061-8.022-3.059-11.083,0.001c-3.06,3.06-3.06,8.023,0.001,11.083
		l10.938,10.937c1.53,1.53,3.536,2.295,5.541,2.295s4.011-0.765,5.542-2.296c3.061-3.06,3.061-8.023-0.001-11.083L385.128,400.928z"
		/>
	<path style="fill:#517D87;" d="M126.05,141.85c-3.062-3.061-8.023-3.061-11.083,0c-3.061,3.061-3.061,8.023,0,11.082l10.938,10.938
		c1.531,1.53,3.537,2.296,5.542,2.296s4.011-0.766,5.542-2.296c3.061-3.061,3.061-8.023,0-11.082L126.05,141.85z"/>
</g>
<g>
	<path style="fill:#F16A5D;" d="M370.958,472.417v26.465c0,5.929,4.85,10.779,10.778,10.779h21.159
		c5.928,0,10.778-4.85,10.778-10.779v-60.139C400.898,451.627,386.559,462.958,370.958,472.417z"/>
	<path style="fill:#F16A5D;" d="M98.327,498.882c0,5.929,4.85,10.779,10.778,10.779h21.159c5.929,0,10.778-4.85,10.778-10.779
		v-26.465c-15.601-9.459-29.939-20.789-42.714-33.673L98.327,498.882z"/>
</g>
<path style="opacity:0.1;enable-background:new    ;" d="M108.794,498.882l0.002-50.253c-3.592-3.185-7.088-6.476-10.468-9.884
	l-0.002,60.137c0,5.929,4.85,10.779,10.778,10.779h10.468C113.644,509.661,108.794,504.811,108.794,498.882z"/>
<path style="opacity:0.1;enable-background:new    ;" d="M381.512,498.882v-24.499h-10.556v24.499
	c0,5.929,4.85,10.779,10.778,10.779h10.556C386.362,509.661,381.512,504.811,381.512,498.882z"/>
<path style="fill:#FFCC4D;" d="M256,52.802c-126.804,0-229.599,102.795-229.599,229.6S129.196,512,256,512
	s229.599-102.795,229.599-229.599S382.804,52.802,256,52.802z M256,473.33c-105.28,0-190.93-85.65-190.93-190.93
	S150.72,91.47,256,91.47c105.279,0,190.93,85.65,190.93,190.93S361.279,473.33,256,473.33z"/>
<path style="opacity:0.1;enable-background:new    ;" d="M49.03,282.401c0-123.011,96.737-223.421,218.283-229.32
	c-3.748-0.182-7.519-0.28-11.313-0.28c-126.804,0-229.599,102.795-229.599,229.6S129.196,512,256,512
	c3.794,0,7.565-0.098,11.313-0.28C145.766,505.82,49.03,405.411,49.03,282.401z"/>
<path style="fill:#517D87;" d="M256.484,290.238h-0.968c-2.202,0-4.303-0.927-5.788-2.554l-67.15-73.567
	c-2.918-3.196-2.692-8.153,0.504-11.072c3.198-2.916,8.155-2.692,11.072,0.505l62.115,68.05l48.806-48.174
	c3.078-3.04,8.04-3.008,11.082,0.072c3.04,3.08,3.008,8.043-0.072,11.082l-54.098,53.395
	C260.522,289.426,258.545,290.238,256.484,290.238z"/>
<path style="fill:#A3A3A3;" d="M296.342,23.088c0,2.964-2.424,5.39-5.39,5.39h-69.907c-2.964,0-5.389-2.425-5.389-5.39V5.39
	c0-2.964,2.424-5.39,5.389-5.39h69.907c2.965,0,5.39,2.425,5.39,5.39V23.088z"/>
<path style="opacity:0.1;enable-background:new    ;" d="M237.831,23.088V5.39c0-2.964,2.425-5.39,5.389-5.39h-22.175
	c-2.964,0-5.389,2.425-5.389,5.39v17.698c0,2.964,2.424,5.39,5.389,5.39h22.175C240.258,28.478,237.831,26.052,237.831,23.088z"/>
<circle style="fill:#F16A5D;" cx="256" cy="277.556" r="22.636"/>
<g>
</g>
<g>
</g>
<g>
</g>
<g>
</g>
<g>
</g>
<g>
</g>
<g>
</g>
<g>
</g>
<g>
</g>
<g>
</g>
<g>
</g>
<g>
</g>
<g>
</g>
<g>
</g>
<g>
</g>
</svg>
