<?xml version="1.0" encoding="iso-8859-1"?>
<!-- Generator: Adobe Illustrator 19.0.0, SVG Export Plug-In . SVG Version: 6.00 Build 0)  -->
<svg version="1.1" id="Layer_1" xmlns="http://www.w3.org/2000/svg" xmlns:xlink="http://www.w3.org/1999/xlink" x="0px" y="0px"
	 viewBox="0 0 512 512" style="enable-background:new 0 0 512 512;" xml:space="preserve">
<g>
	<path style="fill:#F16A5D;" d="M390.001,40.044c-24.047,0-44.955,13.419-55.656,33.176c40.123,15.094,74.74,41.429,99.992,75.186
		c11.677-11.474,18.927-27.434,18.927-45.099C453.265,68.368,424.942,40.044,390.001,40.044z"/>
	<path style="fill:#F16A5D;" d="M121.998,40.044c-34.939,0-63.263,28.324-63.263,63.262c0,17.664,7.251,33.625,18.927,45.099
		c25.251-33.756,59.868-60.092,99.992-75.186C166.952,53.462,146.045,40.044,121.998,40.044z"/>
	<path style="fill:#F16A5D;" d="M367.437,474.29v17.157c0,5.747,4.702,10.449,10.449,10.449h20.511
		c5.747,0,10.449-4.702,10.449-10.449v-43.516c0-1.364-0.272-2.664-0.753-3.861C395.771,455.61,382.14,465.77,367.437,474.29z"/>
	<path style="fill:#F16A5D;" d="M103.155,447.932l-0.002,43.516c0,5.747,4.702,10.449,10.449,10.449h20.511
		c5.747,0,10.449-4.702,10.449-10.449v-17.157c-14.701-8.52-28.331-18.679-40.655-30.219
		C103.426,445.268,103.155,446.568,103.155,447.932z"/>
</g>
<path style="opacity:0.1;enable-background:new    ;" d="M360.017,84.791c14.746-20.299,38.563-33.572,65.514-33.831
	c-10.128-6.888-22.358-10.917-35.53-10.917c-24.047,0-44.955,13.419-55.656,33.176C343.185,76.544,351.755,80.415,360.017,84.791z"
	/>
<circle style="fill:#FFCC4D;" cx="255.999" cy="281.59" r="222.574"/>
<path style="opacity:0.1;enable-background:new    ;" d="M389.088,491.447v-31.443c-6.916,5.167-14.147,9.937-21.651,14.286v17.157
	c0,5.747,4.702,10.449,10.449,10.449h20.511c0.192,0,0.379-0.019,0.569-0.029C393.484,501.567,389.088,497.001,389.088,491.447z"/>
<path style="opacity:0.1;enable-background:new    ;" d="M124.803,491.447l0.001-30.062c-7.317-5.349-14.296-11.132-20.898-17.315
	c-0.481,1.197-0.752,2.497-0.752,3.861l-0.002,43.516c0,5.747,4.702,10.449,10.449,10.449h20.511c0.193,0,0.38-0.019,0.571-0.029
	C129.199,501.567,124.803,497.001,124.803,491.447z"/>
<path style="opacity:0.1;enable-background:new    ;" d="M55.364,281.593c0-119.245,93.775-216.581,211.602-222.3
	c-3.633-0.176-7.29-0.271-10.967-0.271c-122.923,0-222.571,99.649-222.571,222.571s99.648,222.571,222.571,222.571
	c3.678,0,7.334-0.095,10.967-0.272C149.14,498.174,55.364,400.837,55.364,281.593z"/>
<path style="fill:#FFFFFF;" d="M255.999,466.678c-102.056,0-185.085-83.029-185.085-185.085S153.943,96.508,255.999,96.508
	s185.085,83.029,185.085,185.085C441.084,383.649,358.056,466.678,255.999,466.678z"/>
<path style="opacity:0.1;enable-background:new    ;" d="M103.444,281.593c0-96.576,74.354-176.098,168.82-184.362
	c-5.362-0.469-10.783-0.723-16.265-0.723c-102.056,0-185.085,83.029-185.085,185.085s83.029,185.085,185.085,185.085
	c5.482,0,10.904-0.254,16.265-0.723C177.798,457.689,103.444,378.168,103.444,281.593z"/>
<path style="fill:#A5998E;" d="M295.108,30.217c0,2.873-2.351,5.224-5.224,5.224h-67.767c-2.873,0-5.224-2.351-5.224-5.224V13.061
	c0-2.873,2.351-5.224,5.224-5.224h67.767c2.873,0,5.224,2.351,5.224,5.224V30.217z"/>
<path style="opacity:0.1;enable-background:new    ;" d="M238.388,30.217V13.061c0-2.873,2.351-5.224,5.224-5.224h-21.496
	c-2.873,0-5.224,2.351-5.224,5.224v17.156c0,2.873,2.351,5.224,5.224,5.224h21.496C240.739,35.442,238.388,33.091,238.388,30.217z"
	/>
<circle style="fill:#F16A5D;" cx="255.999" cy="276.898" r="21.943"/>
<path style="opacity:0.1;enable-background:new    ;" d="M77.661,148.405c5.636-7.534,11.746-14.689,18.27-21.442
	c-2.952-7.308-4.586-15.289-4.586-23.656c0-29.299,19.921-53.936,46.956-61.13c-5.204-1.384-10.665-2.134-16.305-2.134
	c-34.939,0-63.263,28.324-63.263,63.262C58.734,120.971,65.985,136.931,77.661,148.405z"/>
<path d="M444.46,148.945c8.31-9.899,13.871-21.948,15.835-34.923c0.648-4.28-2.295-8.274-6.574-8.921
	c-4.276-0.649-8.273,2.295-8.921,6.574c-1.35,8.91-4.877,17.265-10.129,24.408c-4.925-6.024-10.173-11.839-15.749-17.414
	c-21.266-21.266-45.962-37.847-72.833-49.261c10.241-13.343,26.231-21.529,43.912-21.529c23.593,0,44.641,14.964,52.376,37.237
	c1.419,4.087,5.881,6.252,9.974,4.833c4.089-1.42,6.252-5.885,4.833-9.974c-9.921-28.572-36.92-47.769-67.182-47.769
	c-24.306,0-46.121,12.063-59.038,31.406c-21.4-7.339-43.966-11.515-67.127-12.286v-8.049h26.047c7.202,0,13.061-5.859,13.061-13.061
	V13.061C302.945,5.859,297.086,0,289.883,0h-67.767c-7.202,0-13.061,5.859-13.061,13.061v17.156c0,7.202,5.859,13.061,13.061,13.061
	h26.046v8.049c-23.161,0.771-45.728,4.947-67.127,12.286c-12.917-19.343-34.731-31.406-59.038-31.406
	c-39.206,0-71.1,31.894-71.1,71.099c0,16.976,6.009,33.034,16.622,45.664c-27.245,38.545-41.928,84.455-41.928,132.623
	c0,61.543,23.966,119.405,67.485,162.923c0.753,0.753,1.521,1.487,2.284,2.229c-0.026,0.393-0.043,0.788-0.043,1.187l-0.002,43.516
	c0,10.082,8.203,18.286,18.286,18.286h20.511c10.082,0,18.286-8.204,18.286-18.286v-3.924C184.139,503.531,219.418,512,255.999,512
	c4.329,0,7.837-3.509,7.837-7.837s-3.508-7.837-7.837-7.837c-118.404,0-214.734-96.329-214.734-214.734
	S137.595,66.859,255.999,66.859s214.734,96.329,214.734,214.734c0,52.072-18.872,102.297-53.14,141.421
	c-33.952,38.762-80.596,64.047-131.341,71.199c-4.286,0.604-7.27,4.568-6.666,8.854c0.604,4.286,4.574,7.268,8.854,6.666
	c24.942-3.515,48.955-11.123,71.162-22.318v4.032c0,10.082,8.203,18.286,18.286,18.286h20.511c10.082,0,18.286-8.203,18.286-18.286
	v-43.516c0-0.399-0.017-0.793-0.043-1.186c4.406-4.286,8.664-8.749,12.741-13.405c36.772-41.983,57.024-95.875,57.024-151.747
	C486.407,233.415,471.717,187.495,444.46,148.945z M136.725,491.447c0,1.416-1.196,2.612-2.612,2.612h-20.511
	c-1.417,0-2.612-1.196-2.612-2.611l0.002-30.783c8.205,6.67,16.8,12.728,25.734,18.152V491.447z M93.077,118.67
	c-5.578,5.578-10.828,11.394-15.754,17.42c-6.895-9.366-10.752-20.781-10.752-32.784c0-30.562,24.864-55.426,55.427-55.426
	c17.681,0,33.672,8.186,43.912,21.529C139.039,80.823,114.343,97.404,93.077,118.67z M224.728,27.605V15.673h62.542v11.932
	C287.27,27.605,224.728,27.605,224.728,27.605z M401.009,491.447c0,1.416-1.196,2.612-2.612,2.612h-20.511
	c-1.416,0-2.612-1.196-2.612-2.612v-12.709c8.96-5.428,17.558-11.477,25.736-18.105V491.447z"/>
<path d="M314.488,224.327c-3.042-3.081-8.004-3.112-11.082-0.072l-29.358,28.977c-5.011-3.831-11.266-6.114-18.047-6.114
	c-6.167,0-11.905,1.885-16.661,5.11l-43.115-47.233c-2.917-3.196-7.873-3.422-11.072-0.505c-3.196,2.917-3.422,7.875-0.504,11.072
	l44.413,48.657c-1.819,3.85-2.842,8.147-2.842,12.68c0,16.421,13.359,29.78,29.78,29.78s29.78-13.359,29.78-29.78
	c0-3.923-0.769-7.666-2.152-11.099l30.789-30.389C317.495,232.37,317.528,227.407,314.488,224.327z M255.999,291.004
	c-7.778,0-14.106-6.328-14.106-14.106s6.328-14.106,14.106-14.106s14.106,6.328,14.106,14.106S263.778,291.004,255.999,291.004z"/>
<path d="M427.279,352.179c4.069,1.484,8.563-0.613,10.046-4.679c7.695-21.105,11.596-43.28,11.596-65.908
	c0-106.378-86.544-192.922-192.922-192.922S63.078,175.216,63.078,281.593s86.544,192.922,192.922,192.922
	c33.969,0,67.395-8.993,96.666-26.008c28.386-16.501,52.286-40.127,69.118-68.327c2.218-3.717,1.003-8.527-2.714-10.746
	c-3.72-2.22-8.527-1.003-10.746,2.713c-6.272,10.508-13.626,20.31-21.874,29.279l-5.104-5.103c-3.059-3.06-8.022-3.059-11.083,0.001
	c-3.06,3.06-3.06,8.023,0.001,11.083l5.086,5.086c-9.342,8.527-19.58,16.082-30.56,22.464
	c-24.761,14.393-52.767,22.518-81.421,23.713v-6.985c0-4.328-3.508-7.837-7.837-7.837s-7.837,3.509-7.837,7.837v6.957
	c-42.907-1.989-81.873-19.303-111.544-46.584l4.65-4.651c3.061-3.06,3.061-8.023,0-11.083c-3.062-3.06-8.023-3.06-11.083,0
	l-4.634,4.633c-27.12-29.719-44.274-68.673-46.149-111.527h6.507c4.329,0,7.837-3.509,7.837-7.837s-3.508-7.837-7.837-7.837h-6.507
	c1.875-42.855,19.03-81.809,46.15-111.528l4.633,4.633c1.531,1.53,3.537,2.296,5.542,2.296c2.005,0,4.011-0.765,5.542-2.296
	c3.061-3.061,3.061-8.023,0-11.082l-4.65-4.65c29.672-27.28,68.638-44.594,111.544-46.584v6.957c0,4.328,3.508,7.837,7.837,7.837
	c4.329,0,7.837-3.509,7.837-7.837v-6.992c43.039,1.769,82.17,18.948,111.996,46.168l-5.102,5.101
	c-3.062,3.061-3.062,8.023-0.001,11.083c1.531,1.53,3.536,2.296,5.542,2.296c2.005,0,4.011-0.765,5.541-2.295l5.119-5.119
	c27.378,29.781,44.716,68.923,46.601,112.013h-7.444c-4.329,0-7.837,3.509-7.837,7.837c0,4.328,3.508,7.837,7.837,7.837h7.456
	c-0.788,18.07-4.302,35.764-10.476,52.703C421.117,346.199,423.212,350.696,427.279,352.179z"/>
<g>
</g>
<g>
</g>
<g>
</g>
<g>
</g>
<g>
</g>
<g>
</g>
<g>
</g>
<g>
</g>
<g>
</g>
<g>
</g>
<g>
</g>
<g>
</g>
<g>
</g>
<g>
</g>
<g>
</g>
</svg>
