<?xml version="1.0" encoding="iso-8859-1"?>
<!-- Generator: Adobe Illustrator 19.0.0, SVG Export Plug-In . SVG Version: 6.00 Build 0)  -->
<svg version="1.1" id="Layer_1" xmlns="http://www.w3.org/2000/svg" xmlns:xlink="http://www.w3.org/1999/xlink" x="0px" y="0px"
	 viewBox="0 0 481.882 481.882" style="enable-background:new 0 0 481.882 481.882;" xml:space="preserve">
<circle style="fill:#64798A;" cx="240.941" cy="240.941" r="240.941"/>
<circle style="fill:#FFFFFF;" cx="240.941" cy="240.941" r="199.981"/>
<g>
	<path style="fill:#3A556A;" d="M240.941,105.412c-3.012,0-6.024,2.409-6.024,6.024v121.073c0,3.012,2.409,6.024,6.024,6.024
		c3.012,0,6.024-2.409,6.024-6.024V110.833C246.965,107.821,243.953,105.412,240.941,105.412z"/>
	<path style="fill:#3A556A;" d="M250.579,234.918H143.962c-3.012,0-6.024,2.409-6.024,6.024c0,3.012,2.409,6.024,6.024,6.024
		h107.821C251.784,242.748,251.181,239.134,250.579,234.918z"/>
</g>
<path style="fill:#EBF0F3;" d="M61.44,281.299C56.621,169.864,160.226,74.692,268.047,74.692
	c55.416,0,104.207,21.685,140.348,57.224C372.856,77.101,310.814,40.96,240.941,40.96c-110.231,0-199.981,89.751-199.981,199.981
	c0,42.767,13.854,82.522,36.744,115.049C68.668,332.499,62.645,307.2,61.44,281.299z"/>
<g>
	<circle style="fill:#E56353;" cx="240.941" cy="65.656" r="11.445"/>
	<circle style="fill:#E56353;" cx="240.941" cy="416.226" r="11.445"/>
	<circle style="fill:#E56353;" cx="416.226" cy="240.941" r="11.445"/>
	<circle style="fill:#E56353;" cx="65.656" cy="240.941" r="11.445"/>
	<ellipse style="fill:#E56353;" cx="328.756" cy="392.627" rx="11.444" ry="11.444"/>
	<ellipse style="fill:#E56353;" cx="153.084" cy="89.249" rx="11.444" ry="11.444"/>
	<ellipse style="fill:#E56353;" cx="89.219" cy="328.786" rx="11.444" ry="11.444"/>
	<ellipse style="fill:#E56353;" cx="392.621" cy="153.09" rx="11.444" ry="11.444"/>
	<ellipse style="fill:#E56353;" cx="328.865" cy="88.916" rx="11.444" ry="11.444"/>
	<ellipse style="fill:#E56353;" cx="152.999" cy="393.027" rx="11.444" ry="11.444"/>
	<ellipse style="fill:#E56353;" cx="392.991" cy="328.896" rx="11.444" ry="11.444"/>
	<ellipse style="fill:#E56353;" cx="88.88" cy="153.011" rx="11.444" ry="11.444"/>
</g>
<circle style="fill:#64798A;" cx="240.941" cy="240.941" r="18.071"/>
<circle style="fill:#3A556A;" cx="240.941" cy="240.941" r="9.035"/>
<g>
</g>
<g>
</g>
<g>
</g>
<g>
</g>
<g>
</g>
<g>
</g>
<g>
</g>
<g>
</g>
<g>
</g>
<g>
</g>
<g>
</g>
<g>
</g>
<g>
</g>
<g>
</g>
<g>
</g>
</svg>
