<?xml version="1.0" encoding="utf-8"?>
<!-- Generator: Adobe Illustrator 24.0.1, SVG Export Plug-In . SVG Version: 6.00 Build 0)  -->
<svg version="1.1" id="Layer_1" xmlns="http://www.w3.org/2000/svg" xmlns:xlink="http://www.w3.org/1999/xlink" x="0px" y="0px"
	 viewBox="0 0 274.2 291.5" style="enable-background:new 0 0 274.2 291.5;" xml:space="preserve">
<style type="text/css">
	.st0{fill:#FFD871;}
	.st1{opacity:0.7;fill:#FFFFFF;}
	.st2{fill:#262262;}
	.st3{fill:none;}
	.st4{opacity:0.7;fill:#FFD871;}
	.st5{fill:none;stroke:#BCBEC0;stroke-linecap:round;stroke-linejoin:round;}
	.st6{opacity:0.51;}
	.st7{fill:none;stroke:#FFFFFF;stroke-width:7;stroke-linejoin:round;}
	.st8{fill:none;stroke:#000000;stroke-width:3;stroke-linejoin:round;}
	.st9{fill:#FFFFFF;}
</style>
<g>
	<rect x="1.2" class="st0" width="271.8" height="291.5"/>
	<g id="LIGHTS">
		<polygon class="st1" points="190.7,116.1 186.5,111.1 248.1,0 273,0 273,11.6 		"/>
		<polygon class="st1" points="112.6,103.5 110.7,106.5 1.2,14.8 1.2,0 29.5,0 		"/>
		<polygon class="st1" points="222.9,110.2 219.9,112.7 85.2,0 127.6,0 		"/>
		<polygon class="st1" points="69.9,112.7 67.4,106.6 169.9,0.1 206.4,0 		"/>
	</g>
	<polygon id="hill" class="st2" points="0.7,291 0.7,130.2 12.1,119.6 21.1,119.6 30.5,112.4 39.2,105.3 53.2,105.3 67.9,102.1 
		78.7,105.3 90.1,102.1 105.8,102.1 117.1,95.8 125.6,102.1 135.9,102.1 141.5,98.8 152,95.8 162,95.8 168.9,105.3 177.9,102.1 
		188.8,102.1 193.8,108.8 203.3,112.4 211.7,115.6 222.1,108.8 226.2,102.1 235.6,95.8 247.1,95.8 253,102.1 263,105.3 273,108.8 
		273,291 	"/>
	<rect x="0.7" y="0.2" class="st3" width="273.5" height="252.9"/>
	<g>
		<g>
			<polygon class="st4" points="14.8,287.1 14.8,257 31.2,257 31.8,224 38.4,224 38.4,221.2 46.5,221.2 45.8,224 49.8,224 
				50.8,283.7 70.8,283.7 70.8,257.4 73.3,257.2 73.3,258.5 74.4,258.5 74.4,256.3 75.8,256.3 75.8,219.1 88.8,219.1 88.8,218.6 
				89.7,218.6 89.7,218 93.1,218 93.1,218.5 93.9,218.5 93.9,219.1 99.8,219.2 99.8,219.6 102.5,219.7 102.5,221.5 103.4,221.5 
				103.4,223.2 104.2,223.2 104.2,224.2 107,224.2 107,223.7 120.4,223.6 120.4,214.7 145.9,214.7 145.9,226.6 151.8,226.7 
				151.8,219.6 152.3,219.6 152.3,202.5 152.7,202.5 152.7,201.1 155.1,201.1 155.1,190.9 157.3,190.9 157.3,190 164.7,190 
				164.7,190.9 166.3,190.9 166.3,188.6 166.8,188.6 166.8,190.9 167.4,190.9 167.4,201 170.1,200.8 170.1,219.7 171.4,219.7 
				171.4,228.3 172.1,228.3 172.1,260.7 177.2,243.3 177.2,213.9 180.3,213.8 180.3,210 180.8,210 180.8,206.8 188.7,206.7 
				198.9,206.7 198.9,209.8 199.8,209.8 199.8,220.1 223.1,220 223.1,220.9 223.6,220.8 223.6,224.7 225.3,224.7 225.3,259.1 
				229.5,259.1 229.5,257.4 231.9,253.7 233.7,253.8 235.9,257.3 235.9,258.4 238.9,258.5 238.9,259.2 242.4,259.2 242.4,273.4 
				248.6,272.9 248.6,258.2 253,258 253,256.3 257.6,253.8 265.5,256.7 265.5,257.9 273,258 273,291 14.8,291 			"/>
			<path class="st0" d="M0,273.7v-18.9h13V243H24l0-10.4h4.2l0.7,10.4h11.2v24h8.1v-13.8h6.9v-1.5l5.8-0.1v-0.6h1.8v-1.3v-2.4
				l5.1-0.1v3.8l1.5-0.1v0.7l3.9-0.1v-0.7l2.2-1.1l3.3,1.3v1l1.6,0.6v1.4h2.2v14.7l10.6-0.1v-1.1l1.3-0.1v-1l4.8-0.1v-1.5h7.5v3.2
				h1.8v-39.9h10.9l1.9-2.2h7.2l1.5,2.2h3.6v-5.4h0.9v-10.1h1.2V209h17.2v3.1h1.3v9.8l0.9,0.1v14.5h1v9.6l8.7,0.1v-20.1
				c0,0,0.6-6.1,2.2-10.3c-3.9-0.8,16.2-0.4,16.2-0.4s-1.6,7.1-2.1,10.1c-0.4,2.9,0.3,22.1,0.3,22.1l0.3,18.2l1.5,0.1v-46.7h8.4
				c0,0,1.6,3.4,1.8,7.7c0.1,4.3,0,14,0,14l12.7-0.3v15.2l7.8-0.3v-1.3l11.7-1.5l8.2-0.1c0,0,2.1-0.6,2.2,2c0.2,2.5,0.2,2.5,0.2,2.5
				l2.1,0.1v-0.7l13.6-0.3v2.1l3.9,1.1l-0.2,12.8l16.8,0.2V291L0,291.5L0,273.7z"/>
		</g>
		<g>
			<path class="st2" d="M23.4,272.4h0.8v12.1h7.3v0.7h-8.1V272.4z"/>
			<path class="st2" d="M50.1,285.5c-3.9,0-6.1-3-6.1-6.7s2.3-6.7,6.1-6.7c3.8,0,6.1,3,6.1,6.7S53.9,285.5,50.1,285.5z M50.1,284.8
				c3.3,0,5.3-2.7,5.3-6c0-3.3-2-6-5.3-6c-3.4,0-5.3,2.7-5.3,6C44.8,282.1,46.7,284.8,50.1,284.8z"/>
			<path class="st2" d="M78.5,276.1c-0.1-2.2-1.7-3.3-4.1-3.3c-1.5,0-3.5,0.6-3.5,2.7c0,2.1,2.2,2.4,4.4,2.9c2.2,0.4,4.4,1,4.4,3.6
				c0,2.7-2.6,3.6-4.5,3.6c-3,0-5.5-1.2-5.4-4.5h0.8c-0.2,2.8,2.1,3.9,4.6,3.9c1.5,0,3.7-0.7,3.7-2.9c0-2.2-2.2-2.5-4.4-3
				c-2.2-0.4-4.4-1-4.4-3.4c0-2.5,2.3-3.4,4.3-3.4c2.7,0,4.8,1.1,4.9,4H78.5z"/>
			<path class="st2" d="M106.9,272.4l5.1,12.8h-0.8l-1.6-4.1h-6.2l-1.6,4.1h-0.8l5.2-12.8H106.9z M109.3,280.4l-2.8-7.3h0l-2.9,7.3
				H109.3z"/>
			<path class="st2" d="M125.1,272.4h1l8.1,11.8h0v-11.8h0.8v12.8h-0.9l-8.2-11.8h0v11.8h-0.8V272.4z"/>
			<path class="st2" d="M160.7,278.9v6.3H160v-2.7h0c-0.6,1.9-2.6,3-4.9,3c-3.9,0-6-3-6-6.6c0-3.6,2.2-6.8,6.1-6.8
				c2.6,0,4.9,1.6,5.3,4.3h-0.8c-0.6-2.2-2.2-3.6-4.6-3.6c-3.5,0-5.3,2.9-5.3,6.1c0,3.3,1.8,6,5.3,6c3.1,0,5-2.1,4.9-5.2h-4.7v-0.7
				H160.7z"/>
			<path class="st2" d="M183.8,284.5v0.7h-8.7v-12.8h8.6v0.7h-7.9v5.1h7.4v0.7h-7.4v5.6H183.8z"/>
			<path class="st2" d="M197.4,272.4h0.8v12.1h7.3v0.7h-8.1V272.4z"/>
			<path class="st2" d="M227.3,284.5v0.7h-8.7v-12.8h8.6v0.7h-7.9v5.1h7.4v0.7h-7.4v5.6H227.3z"/>
			<path class="st2" d="M249.2,276.1c-0.1-2.2-1.7-3.3-4.1-3.3c-1.5,0-3.5,0.6-3.5,2.7c0,2.1,2.2,2.4,4.4,2.9c2.2,0.4,4.4,1,4.4,3.6
				c0,2.7-2.6,3.6-4.5,3.6c-3,0-5.5-1.2-5.4-4.5h0.8c-0.2,2.8,2.1,3.9,4.6,3.9c1.5,0,3.7-0.7,3.7-2.9c0-2.2-2.2-2.5-4.4-3
				c-2.2-0.4-4.4-1-4.4-3.4c0-2.5,2.3-3.4,4.3-3.4c2.7,0,4.8,1.1,4.9,4H249.2z"/>
		</g>
	</g>
</g>
<g id="Letters">
	<path class="st5" d="M19.4,174.6c0,0,12.4-10.9,48.1-10.4c43.7,0.6,74.8,15.7,120.8,16.6c52.2,1.1,66.9-8.7,66.9-8.7"/>
	<g>
		<g>
			<line class="st5" x1="45.2" y1="161.7" x2="61" y2="161.7"/>
			<line class="st5" x1="45.2" y1="157.1" x2="61" y2="157.1"/>
			<line class="st5" x1="45.2" y1="147.7" x2="61" y2="147.7"/>
			<line class="st5" x1="45.2" y1="143.1" x2="61" y2="143.1"/>
			<line class="st5" x1="45.2" y1="138.4" x2="61" y2="138.4"/>
			<line class="st5" x1="45.2" y1="133.8" x2="61" y2="133.8"/>
			<line class="st5" x1="45.2" y1="129.1" x2="61" y2="129.1"/>
			<line class="st5" x1="45.2" y1="152.4" x2="61" y2="152.4"/>
			<line class="st5" x1="45.2" y1="165.7" x2="45.2" y2="129.1"/>
			<line class="st5" x1="53.1" y1="164.6" x2="53.1" y2="129.1"/>
			<line class="st5" x1="61" y1="164.2" x2="61" y2="129.1"/>
		</g>
		<g>
			<line class="st5" x1="95.3" y1="164.9" x2="111.1" y2="164.9"/>
			<line class="st5" x1="95.3" y1="160.2" x2="111.1" y2="160.2"/>
			<line class="st5" x1="95.3" y1="150.9" x2="111.1" y2="150.9"/>
			<line class="st5" x1="95.3" y1="146.2" x2="111.1" y2="146.2"/>
			<line class="st5" x1="95.3" y1="141.6" x2="111.1" y2="141.6"/>
			<line class="st5" x1="95.3" y1="136.9" x2="111.1" y2="136.9"/>
			<line class="st5" x1="95.3" y1="132.2" x2="111.1" y2="132.2"/>
			<line class="st5" x1="95.3" y1="155.5" x2="111.1" y2="155.5"/>
			<line class="st5" x1="95.3" y1="166.5" x2="95.3" y2="132.2"/>
			<line class="st5" x1="103.2" y1="167.8" x2="103.2" y2="132.2"/>
			<line class="st5" x1="111.1" y1="169.1" x2="111.1" y2="132.2"/>
		</g>
		<g>
			<line class="st5" x1="134.1" y1="172.2" x2="149.9" y2="172.2"/>
			<line class="st5" x1="134.1" y1="167.5" x2="149.9" y2="167.5"/>
			<line class="st5" x1="134.1" y1="158.2" x2="149.9" y2="158.2"/>
			<line class="st5" x1="134.1" y1="153.5" x2="149.9" y2="153.5"/>
			<line class="st5" x1="134.1" y1="148.9" x2="149.9" y2="148.9"/>
			<line class="st5" x1="134.1" y1="144.2" x2="149.9" y2="144.2"/>
			<line class="st5" x1="134.1" y1="139.5" x2="149.9" y2="139.5"/>
			<line class="st5" x1="134.1" y1="162.8" x2="149.9" y2="162.8"/>
			<line class="st5" x1="134.1" y1="173.8" x2="134.1" y2="139.5"/>
			<line class="st5" x1="142" y1="175.4" x2="142" y2="139.5"/>
			<line class="st5" x1="149.9" y1="176.9" x2="149.9" y2="139.5"/>
		</g>
		<g>
			<line class="st5" x1="165.9" y1="176.8" x2="181.7" y2="176.8"/>
			<line class="st5" x1="165.9" y1="172.1" x2="181.7" y2="172.1"/>
			<line class="st5" x1="165.9" y1="162.8" x2="181.7" y2="162.8"/>
			<line class="st5" x1="165.9" y1="158.2" x2="181.7" y2="158.2"/>
			<line class="st5" x1="165.9" y1="153.5" x2="181.7" y2="153.5"/>
			<line class="st5" x1="165.9" y1="148.8" x2="181.7" y2="148.8"/>
			<line class="st5" x1="165.9" y1="144.2" x2="181.7" y2="144.2"/>
			<line class="st5" x1="165.9" y1="167.5" x2="181.7" y2="167.5"/>
			<line class="st5" x1="165.9" y1="179.2" x2="165.9" y2="144.2"/>
			<line class="st5" x1="173.8" y1="180" x2="173.8" y2="144.2"/>
			<line class="st5" x1="181.7" y1="180.6" x2="181.7" y2="144.2"/>
		</g>
		<g>
			<line class="st5" x1="198" y1="177.6" x2="213.8" y2="177.6"/>
			<line class="st5" x1="198" y1="173" x2="213.8" y2="173"/>
			<line class="st5" x1="198" y1="163.6" x2="213.8" y2="163.6"/>
			<line class="st5" x1="198" y1="159" x2="213.8" y2="159"/>
			<line class="st5" x1="198" y1="154.3" x2="213.8" y2="154.3"/>
			<line class="st5" x1="198" y1="149.7" x2="213.8" y2="149.7"/>
			<line class="st5" x1="198" y1="145" x2="213.8" y2="145"/>
			<line class="st5" x1="198" y1="168.3" x2="213.8" y2="168.3"/>
			<line class="st5" x1="198" y1="180.9" x2="198" y2="145"/>
			<line class="st5" x1="205.9" y1="180.9" x2="205.9" y2="145"/>
			<line class="st5" x1="213.8" y1="180.4" x2="213.8" y2="145"/>
		</g>
		<g>
			<line class="st5" x1="230.3" y1="173.3" x2="246.1" y2="173.3"/>
			<line class="st5" x1="230.3" y1="168.7" x2="246.1" y2="168.7"/>
			<line class="st5" x1="230.3" y1="159.3" x2="246.1" y2="159.3"/>
			<line class="st5" x1="230.3" y1="154.7" x2="246.1" y2="154.7"/>
			<line class="st5" x1="230.3" y1="150" x2="246.1" y2="150"/>
			<line class="st5" x1="230.3" y1="145.4" x2="246.1" y2="145.4"/>
			<line class="st5" x1="230.3" y1="140.7" x2="246.1" y2="140.7"/>
			<line class="st5" x1="230.3" y1="164" x2="246.1" y2="164"/>
			<line class="st5" x1="230.3" y1="178.8" x2="230.3" y2="140.7"/>
			<line class="st5" x1="238.2" y1="177.5" x2="238.2" y2="140.7"/>
			<line class="st5" x1="246.1" y1="175.4" x2="246.1" y2="140.7"/>
		</g>
		<g>
			<line class="st5" x1="26.8" y1="166.7" x2="32.4" y2="166.7"/>
			<line class="st5" x1="26.8" y1="162.1" x2="32.4" y2="162.1"/>
			<line class="st5" x1="26.8" y1="152.7" x2="32.4" y2="152.7"/>
			<line class="st5" x1="26.8" y1="148.1" x2="32.4" y2="148.1"/>
			<line class="st5" x1="26.8" y1="143.4" x2="32.4" y2="143.4"/>
			<line class="st5" x1="26.8" y1="138.8" x2="32.4" y2="138.8"/>
			<line class="st5" x1="26.8" y1="134.1" x2="32.4" y2="134.1"/>
			<line class="st5" x1="26.8" y1="157.4" x2="32.4" y2="157.4"/>
			<line class="st5" x1="26.8" y1="170.5" x2="26.8" y2="134.1"/>
			<line class="st5" x1="32.4" y1="168.4" x2="32.4" y2="134.1"/>
		</g>
		<g>
			<line class="st5" x1="74.2" y1="162.1" x2="79.8" y2="162.1"/>
			<line class="st5" x1="74.2" y1="157.4" x2="79.8" y2="157.4"/>
			<line class="st5" x1="74.2" y1="148.1" x2="79.8" y2="148.1"/>
			<line class="st5" x1="74.2" y1="143.4" x2="79.8" y2="143.4"/>
			<line class="st5" x1="74.2" y1="138.8" x2="79.8" y2="138.8"/>
			<line class="st5" x1="74.2" y1="134.1" x2="79.8" y2="134.1"/>
			<line class="st5" x1="74.2" y1="129.4" x2="79.8" y2="129.4"/>
			<line class="st5" x1="74.2" y1="152.7" x2="79.8" y2="152.7"/>
			<line class="st5" x1="74.2" y1="164.4" x2="74.2" y2="129.4"/>
			<line class="st5" x1="79.8" y1="164.8" x2="79.8" y2="129.4"/>
		</g>
	</g>
	<g>
		<g class="st6">
			<path class="st7" d="M33.7,162.4h-7.6v-35.7h7.6V162.4z"/>
		</g>
		<path class="st8" d="M33.7,162.4h-7.6v-35.7h7.6V162.4z"/>
		<path class="st9" d="M33.7,162.4h-7.6v-35.7h7.6V162.4z"/>
	</g>
	<g>
		<g class="st6">
			<path class="st7" d="M63.6,152.6l-5.1,5.1H48.3l-5.1-5.1v-5.1h7.6v2.6H56v-6.4h-7.6l-5.1-5.1v-11.5l5.1-5.1h10.2l5.1,5.1v5.1H56
				v-2.5h-5.1v6.4h7.6l5.1,5.1V152.6z"/>
		</g>
		<path class="st8" d="M63.6,152.6l-5.1,5.1H48.3l-5.1-5.1v-5.1h7.6v2.6H56v-6.4h-7.6l-5.1-5.1v-11.5l5.1-5.1h10.2l5.1,5.1v5.1H56
			v-2.5h-5.1v6.4h7.6l5.1,5.1V152.6z"/>
		<path class="st9" d="M63.6,152.6l-5.1,5.1H48.3l-5.1-5.1v-5.1h7.6v2.6H56v-6.4h-7.6l-5.1-5.1v-11.5l5.1-5.1h10.2l5.1,5.1v5.1H56
			v-2.5h-5.1v6.4h7.6l5.1,5.1V152.6z"/>
	</g>
	<g>
		<g class="st6">
			<path class="st7" d="M80.8,158.7h-7.6V123h7.6V158.7z"/>
		</g>
		<path class="st8" d="M80.8,158.7h-7.6V123h7.6V158.7z"/>
		<path class="st9" d="M80.8,158.7h-7.6V123h7.6V158.7z"/>
	</g>
	<g>
		<g class="st6">
			<path class="st7" d="M114.6,132.8H107v28h-7.6v-28h-7.7v-7.6h23V132.8z"/>
		</g>
		<path class="st8" d="M114.6,132.8H107v28h-7.6v-28h-7.7v-7.6h23V132.8z"/>
		<path class="st9" d="M114.6,132.8H107v28h-7.6v-28h-7.7v-7.6h23V132.8z"/>
	</g>
	<g>
		<g class="st6">
			<path class="st7" d="M152,169.1h-20.4v-16.6l5.1-5.1h7.6V141h-5.1v2.5h-7.6v-5.1l5.1-5.1h10.2l5.1,5.1V150l-5.1,5.1h-7.6v6.4H152
				V169.1z"/>
		</g>
		<path class="st8" d="M152,169.1h-20.4v-16.6l5.1-5.1h7.6V141h-5.1v2.5h-7.6v-5.1l5.1-5.1h10.2l5.1,5.1V150l-5.1,5.1h-7.6v6.4H152
			V169.1z"/>
		<path class="st9" d="M152,169.1h-20.4v-16.6l5.1-5.1h7.6V141h-5.1v2.5h-7.6v-5.1l5.1-5.1h10.2l5.1,5.1V150l-5.1,5.1h-7.6v6.4H152
			V169.1z"/>
	</g>
	<g>
		<g class="st6">
			<path class="st7" d="M184,167.9l-5.1,5.1h-10.2l-5.1-5.1v-25.5l5.1-5.1h10.2l5.1,5.1V167.9z M176.3,165.4V145h-5.1v20.4H176.3z"
				/>
		</g>
		<path class="st8" d="M184,167.9l-5.1,5.1h-10.2l-5.1-5.1v-25.5l5.1-5.1h10.2l5.1,5.1V167.9z M176.3,165.4V145h-5.1v20.4H176.3z"/>
		<path class="st9" d="M184,167.9l-5.1,5.1h-10.2l-5.1-5.1v-25.5l5.1-5.1h10.2l5.1,5.1V167.9z M176.3,165.4V145h-5.1v20.4H176.3z"/>
	</g>
	<g>
		<g class="st6">
			<path class="st7" d="M216.1,174h-20.4v-16.6l5.1-5.1h7.6V146h-5.1v2.5h-7.6v-5.1l5.1-5.1h10.2l5.1,5.1v11.5l-5.1,5.1h-7.6v6.4
				h12.8V174z"/>
		</g>
		<path class="st8" d="M216.1,174h-20.4v-16.6l5.1-5.1h7.6V146h-5.1v2.5h-7.6v-5.1l5.1-5.1h10.2l5.1,5.1v11.5l-5.1,5.1h-7.6v6.4
			h12.8V174z"/>
		<path class="st9" d="M216.1,174h-20.4v-16.6l5.1-5.1h7.6V146h-5.1v2.5h-7.6v-5.1l5.1-5.1h10.2l5.1,5.1v11.5l-5.1,5.1h-7.6v6.4
			h12.8V174z"/>
	</g>
	<g>
		<g class="st6">
			<path class="st7" d="M248.4,164l-5.1,5.1h-10.2L228,164v-25.5l5.1-5.1h10.2l5.1,5.1V164z M240.7,161.4V141h-5.1v20.4H240.7z"/>
		</g>
		<path class="st8" d="M248.4,164l-5.1,5.1h-10.2L228,164v-25.5l5.1-5.1h10.2l5.1,5.1V164z M240.7,161.4V141h-5.1v20.4H240.7z"/>
		<path class="st9" d="M248.4,164l-5.1,5.1h-10.2L228,164v-25.5l5.1-5.1h10.2l5.1,5.1V164z M240.7,161.4V141h-5.1v20.4H240.7z"/>
	</g>
</g>
</svg>
